<?xml version="1.0" encoding="utf-8"?>
<!-- Generator: Adobe Illustrator 16.0.4, SVG Export Plug-In . SVG Version: 6.00 Build 0)  -->
<!DOCTYPE svg PUBLIC "-//W3C//DTD SVG 1.1//EN" "http://www.w3.org/Graphics/SVG/1.1/DTD/svg11.dtd">
<svg version="1.1" id="Layer_1" xmlns="http://www.w3.org/2000/svg" xmlns:xlink="http://www.w3.org/1999/xlink" x="0px" y="0px"
	 width="595.28px" height="595.279px" viewBox="0 123.305 595.28 595.279" enable-background="new 0 123.305 595.28 595.279"
	 xml:space="preserve">
<g>
	<path fill="#777777" d="M297.64,123.305C133.25,123.305,0,256.555,0,420.946C0,585.317,133.25,718.584,297.64,718.584
		s297.64-133.268,297.64-297.639C595.28,256.555,462.031,123.305,297.64,123.305z"/>
</g>
<path id="Blogger_1_" fill="#FFFFFF" d="M445.588,486.534l0.777-80.131l-0.869-4.586l-2.477-5.76l-4.195-3.622
	c-5.438-4.754-33.04,0.331-40.476-7.188c-5.262-5.373-6.298-19.14-7.89-32.277c-2.964-25.442-4.829-26.76-8.41-35.391
	c-12.991-30.625-48.239-53.646-72.469-56.827h-65.595c-51.613,0-93.806,46.915-93.806,104.217v121.564
	c0,57.184,42.192,104.029,93.806,104.029h107.78C403.369,590.563,445.291,543.717,445.588,486.534z M243.608,343.198h56.258
	c10.754,0,19.448,10.627,19.448,23.547c0,12.861-8.694,23.578-19.448,23.578h-56.258c-10.756,0-19.432-10.716-19.432-23.578
	C224.177,353.825,232.852,343.198,243.608,343.198L243.608,343.198z M224.177,484.561c0-12.98,8.391-23.566,18.778-23.566h110.518
	c10.315,0,18.699,10.586,18.699,23.566c0,12.789-8.384,23.551-18.699,23.551H242.955C232.568,508.11,224.177,497.35,224.177,484.561
	L224.177,484.561z"/>
</svg>
